<svg width="2456" height="579" viewBox="0 0 2456 579" fill="none" xmlns="http://www.w3.org/2000/svg">
<path d="M247.7 158.65L307.12 276.529C308.001 278.277 309.696 279.47 311.638 279.71L456.22 297.575C465.082 298.67 471.87 289.857 468.548 281.568L434.309 196.142C431.58 189.331 423.337 186.669 417.14 190.597L343.863 237.043C342.086 238.17 339.839 236.568 340.324 234.521L363.149 138.195C365.111 129.918 357.887 122.371 349.532 123.967L255.973 141.847C248.319 143.309 244.192 151.691 247.7 158.65Z" fill="#7C3AED"/>
<path d="M156.792 239.522L201.244 175.791C206.251 168.612 217.071 169.246 221.206 176.96L282.225 290.812C283.156 292.551 283.152 294.641 282.213 296.376L217.334 416.186C212.893 424.386 201.123 424.378 196.694 416.171L154.315 337.646C150.998 331.5 153.753 323.834 160.224 321.206L228.046 293.658C230.909 292.495 230.991 288.472 228.178 287.194L161.56 256.913C154.886 253.88 152.598 245.536 156.792 239.522Z" fill="#7C3AED"/>
<path d="M243.077 433.165L304.945 315.373C306.074 313.224 308.411 311.992 310.822 312.275L452.803 328.958C461.325 329.959 465.924 339.47 461.417 346.771L414.789 422.304C410.796 428.772 401.801 429.793 396.46 424.384L334.811 361.954C332.443 359.556 328.383 361.538 328.817 364.88L338.728 441.255C339.674 448.538 333.769 454.89 326.435 454.477L252.803 450.333C244.281 449.853 239.107 440.722 243.077 433.165Z" fill="#7C3AED"/>
<path d="M555.409 173.273L620.182 362.818H622.795L687.568 173.273H725.523L641.773 406H601.205L517.455 173.273H555.409ZM746.803 406V231.455H780.781V406H746.803ZM763.962 204.523C758.053 204.523 752.978 202.553 748.735 198.614C744.569 194.598 742.485 189.826 742.485 184.295C742.485 178.689 744.569 173.917 748.735 169.977C752.978 165.962 758.053 163.955 763.962 163.955C769.872 163.955 774.909 165.962 779.076 169.977C783.319 173.917 785.44 178.689 785.44 184.295C785.44 189.826 783.319 194.598 779.076 198.614C774.909 202.553 769.872 204.523 763.962 204.523ZM819.618 406V173.273H853.595V259.75H855.641C857.611 256.114 860.452 251.909 864.164 247.136C867.876 242.364 873.027 238.197 879.618 234.636C886.209 231 894.921 229.182 905.755 229.182C919.845 229.182 932.421 232.742 943.482 239.864C954.542 246.985 963.217 257.25 969.505 270.659C975.868 284.068 979.05 300.205 979.05 319.068C979.05 337.932 975.906 354.106 969.618 367.591C963.33 381 954.694 391.341 943.709 398.614C932.724 405.811 920.186 409.409 906.095 409.409C895.489 409.409 886.815 407.629 880.073 404.068C873.406 400.508 868.179 396.341 864.391 391.568C860.603 386.795 857.686 382.553 855.641 378.841H852.8V406H819.618ZM852.914 318.727C852.914 331 854.694 341.758 858.255 351C861.815 360.242 866.967 367.477 873.709 372.705C880.452 377.856 888.709 380.432 898.482 380.432C908.633 380.432 917.118 377.742 923.936 372.364C930.755 366.909 935.906 359.523 939.391 350.205C942.952 340.886 944.732 330.394 944.732 318.727C944.732 307.212 942.989 296.871 939.505 287.705C936.095 278.538 930.944 271.303 924.05 266C917.232 260.697 908.709 258.045 898.482 258.045C888.633 258.045 880.3 260.583 873.482 265.659C866.739 270.735 861.626 277.818 858.141 286.909C854.656 296 852.914 306.606 852.914 318.727ZM1082.83 409.523C1065.63 409.523 1050.82 405.848 1038.4 398.5C1026.05 391.076 1016.5 380.659 1009.76 367.25C1003.1 353.765 999.763 337.97 999.763 319.864C999.763 301.985 1003.1 286.227 1009.76 272.591C1016.5 258.955 1025.9 248.311 1037.94 240.659C1050.07 233.008 1064.23 229.182 1080.44 229.182C1090.29 229.182 1099.84 230.811 1109.08 234.068C1118.32 237.326 1126.62 242.439 1133.97 249.409C1141.32 256.379 1147.11 265.432 1151.35 276.568C1155.6 287.629 1157.72 301.076 1157.72 316.909V328.955H1018.97V303.5H1124.42C1124.42 294.561 1122.6 286.644 1118.97 279.75C1115.33 272.78 1110.22 267.288 1103.63 263.273C1097.11 259.258 1089.46 257.25 1080.67 257.25C1071.13 257.25 1062.79 259.598 1055.67 264.295C1048.63 268.917 1043.17 274.977 1039.31 282.477C1035.52 289.902 1033.63 297.97 1033.63 306.682V326.568C1033.63 338.235 1035.67 348.159 1039.76 356.341C1043.93 364.523 1049.72 370.773 1057.15 375.091C1064.57 379.333 1073.25 381.455 1083.17 381.455C1089.61 381.455 1095.48 380.545 1100.79 378.727C1106.09 376.833 1110.67 374.03 1114.54 370.318C1118.4 366.606 1121.35 362.023 1123.4 356.568L1155.56 362.364C1152.98 371.833 1148.36 380.129 1141.69 387.25C1135.1 394.295 1126.81 399.788 1116.81 403.727C1106.88 407.591 1095.56 409.523 1082.83 409.523Z" fill="black"/>
<path d="M1249.41 173.273L1314.18 362.818H1316.8L1381.57 173.273H1419.52L1335.77 406H1295.2L1211.45 173.273H1249.41ZM1495.33 409.523C1478.13 409.523 1463.32 405.848 1450.9 398.5C1438.55 391.076 1429 380.659 1422.26 367.25C1415.6 353.765 1412.26 337.97 1412.26 319.864C1412.26 301.985 1415.6 286.227 1422.26 272.591C1429 258.955 1438.4 248.311 1450.44 240.659C1462.57 233.008 1476.73 229.182 1492.94 229.182C1502.79 229.182 1512.34 230.811 1521.58 234.068C1530.82 237.326 1539.12 242.439 1546.47 249.409C1553.82 256.379 1559.61 265.432 1563.85 276.568C1568.1 287.629 1570.22 301.076 1570.22 316.909V328.955H1431.47V303.5H1536.92C1536.92 294.561 1535.1 286.644 1531.47 279.75C1527.83 272.78 1522.72 267.288 1516.13 263.273C1509.61 259.258 1501.96 257.25 1493.17 257.25C1483.63 257.25 1475.29 259.598 1468.17 264.295C1461.13 268.917 1455.67 274.977 1451.81 282.477C1448.02 289.902 1446.13 297.97 1446.13 306.682V326.568C1446.13 338.235 1448.17 348.159 1452.26 356.341C1456.43 364.523 1462.22 370.773 1469.65 375.091C1477.07 379.333 1485.75 381.455 1495.67 381.455C1502.11 381.455 1507.98 380.545 1513.29 378.727C1518.59 376.833 1523.17 374.03 1527.04 370.318C1530.9 366.606 1533.85 362.023 1535.9 356.568L1568.06 362.364C1565.48 371.833 1560.86 380.129 1554.19 387.25C1547.6 394.295 1539.31 399.788 1529.31 403.727C1519.38 407.591 1508.06 409.523 1495.33 409.523ZM1629.09 302.364V406H1595.12V231.455H1627.73V259.864H1629.89C1633.9 250.621 1640.19 243.197 1648.75 237.591C1657.39 231.985 1668.26 229.182 1681.37 229.182C1693.26 229.182 1703.68 231.682 1712.62 236.682C1721.56 241.606 1728.49 248.955 1733.41 258.727C1738.34 268.5 1740.8 280.583 1740.8 294.977V406H1706.82V299.068C1706.82 286.417 1703.52 276.53 1696.93 269.409C1690.34 262.212 1681.29 258.614 1669.77 258.614C1661.9 258.614 1654.89 260.318 1648.75 263.727C1642.69 267.136 1637.88 272.136 1634.32 278.727C1630.84 285.242 1629.09 293.121 1629.09 302.364ZM1855.04 231.455V258.727H1759.7V231.455H1855.04ZM1785.27 189.636H1819.25V354.75C1819.25 361.341 1820.23 366.303 1822.2 369.636C1824.17 372.894 1826.71 375.129 1829.82 376.341C1833 377.477 1836.44 378.045 1840.16 378.045C1842.88 378.045 1845.27 377.856 1847.32 377.477C1849.36 377.098 1850.95 376.795 1852.09 376.568L1858.22 404.636C1856.26 405.394 1853.45 406.152 1849.82 406.909C1846.18 407.742 1841.63 408.197 1836.18 408.273C1827.24 408.424 1818.91 406.833 1811.18 403.5C1803.45 400.167 1797.2 395.015 1792.43 388.045C1787.66 381.076 1785.27 372.326 1785.27 361.795V189.636ZM1990.4 333.614V231.455H2024.49V406H1991.08V375.773H1989.26C1985.25 385.091 1978.81 392.856 1969.94 399.068C1961.15 405.205 1950.21 408.273 1937.1 408.273C1925.89 408.273 1915.96 405.811 1907.33 400.886C1898.77 395.886 1892.03 388.5 1887.1 378.727C1882.25 368.955 1879.83 356.871 1879.83 342.477V231.455H1913.81V338.386C1913.81 350.28 1917.1 359.75 1923.69 366.795C1930.28 373.841 1938.84 377.364 1949.37 377.364C1955.74 377.364 1962.06 375.773 1968.35 372.591C1974.71 369.409 1979.98 364.598 1984.15 358.159C1988.39 351.72 1990.47 343.538 1990.4 333.614ZM2057.34 406V231.455H2090.18V259.182H2092C2095.18 249.788 2100.79 242.402 2108.82 237.023C2116.92 231.568 2126.09 228.841 2136.32 228.841C2138.44 228.841 2140.94 228.917 2143.82 229.068C2146.77 229.22 2149.08 229.409 2150.75 229.636V262.136C2149.39 261.758 2146.96 261.341 2143.48 260.886C2139.99 260.356 2136.51 260.091 2133.02 260.091C2124.99 260.091 2117.83 261.795 2111.55 265.205C2105.33 268.538 2100.41 273.197 2096.77 279.182C2093.14 285.091 2091.32 291.833 2091.32 299.409V406H2057.34ZM2236.33 409.523C2219.13 409.523 2204.32 405.848 2191.9 398.5C2179.55 391.076 2170 380.659 2163.26 367.25C2156.6 353.765 2153.26 337.97 2153.26 319.864C2153.26 301.985 2156.6 286.227 2163.26 272.591C2170 258.955 2179.4 248.311 2191.44 240.659C2203.57 233.008 2217.73 229.182 2233.94 229.182C2243.79 229.182 2253.34 230.811 2262.58 234.068C2271.82 237.326 2280.12 242.439 2287.47 249.409C2294.82 256.379 2300.61 265.432 2304.85 276.568C2309.1 287.629 2311.22 301.076 2311.22 316.909V328.955H2172.47V303.5H2277.92C2277.92 294.561 2276.1 286.644 2272.47 279.75C2268.83 272.78 2263.72 267.288 2257.13 263.273C2250.61 259.258 2242.96 257.25 2234.17 257.25C2224.63 257.25 2216.29 259.598 2209.17 264.295C2202.13 268.917 2196.67 274.977 2192.81 282.477C2189.02 289.902 2187.13 297.97 2187.13 306.682V326.568C2187.13 338.235 2189.17 348.159 2193.26 356.341C2197.43 364.523 2203.22 370.773 2210.65 375.091C2218.07 379.333 2226.75 381.455 2236.67 381.455C2243.11 381.455 2248.98 380.545 2254.29 378.727C2259.59 376.833 2264.17 374.03 2268.04 370.318C2271.9 366.606 2274.85 362.023 2276.9 356.568L2309.06 362.364C2306.48 371.833 2301.86 380.129 2295.19 387.25C2288.6 394.295 2280.31 399.788 2270.31 403.727C2260.38 407.591 2249.06 409.523 2236.33 409.523Z" fill="#7C3AED"/>
</svg>
