<svg width="187" height="46" viewBox="0 0 187 46" fill="none" xmlns="http://www.w3.org/2000/svg">
<path d="M17.7938 23.0727C17.7938 23.7179 17.8941 24.2851 18.0949 24.7746C18.309 25.264 18.6235 25.6533 19.0384 25.9425L26.0246 30.9813C26.3726 31.226 26.6938 31.315 26.9882 31.2483C27.2961 31.1815 27.537 30.948 27.7109 30.5475C27.8983 30.1248 27.992 29.5464 27.992 28.8123C27.992 28.2116 27.905 27.7222 27.731 27.344C27.5704 26.9658 27.2559 26.6321 26.7875 26.3429L20.7649 22.4053V23.4731L26.8076 19.3687C27.2626 19.0572 27.5704 18.7124 27.731 18.3342C27.905 17.956 27.992 17.4332 27.992 16.7658C27.992 16.1874 27.8983 15.7314 27.7109 15.3977C27.537 15.0417 27.3027 14.8304 27.0083 14.7637C26.7139 14.6747 26.3927 14.7637 26.0447 15.0306L19.0384 20.1695C18.6102 20.4588 18.2956 20.8481 18.0949 21.3375C17.8941 21.8047 17.7938 22.3831 17.7938 23.0727Z" fill="url(#paint0_linear_552_1420)"/>
<path d="M17.7938 23.0727C17.7938 23.7179 17.8941 24.2851 18.0949 24.7746C18.309 25.264 18.6235 25.6533 19.0384 25.9425L26.0246 30.9813C26.3726 31.226 26.6938 31.315 26.9882 31.2483C27.2961 31.1815 27.537 30.948 27.7109 30.5475C27.8983 30.1248 27.992 29.5464 27.992 28.8123C27.992 28.2116 27.905 27.7222 27.731 27.344C27.5704 26.9658 27.2559 26.6321 26.7875 26.3429L20.7649 22.4053V23.4731L26.8076 19.3687C27.2626 19.0572 27.5704 18.7124 27.731 18.3342C27.905 17.956 27.992 17.4332 27.992 16.7658C27.992 16.1874 27.8983 15.7314 27.7109 15.3977C27.537 15.0417 27.3027 14.8304 27.0083 14.7637C26.7139 14.6747 26.3927 14.7637 26.0447 15.0306L19.0384 20.1695C18.6102 20.4588 18.2956 20.8481 18.0949 21.3375C17.8941 21.8047 17.7938 22.3831 17.7938 23.0727Z" fill="url(#paint1_linear_552_1420)"/>
<path d="M15.9233 24.6017C15.2782 24.6017 14.7109 24.702 14.2214 24.9028C13.732 25.1169 13.3427 25.4314 13.0535 25.8463L8.01469 32.8325C7.76998 33.1805 7.68099 33.5017 7.74773 33.7961C7.81447 34.1039 8.04806 34.3448 8.44849 34.5188C8.87117 34.7062 9.44958 34.7999 10.1837 34.7999C10.7844 34.7999 11.2738 34.7129 11.652 34.5389C12.0302 34.3783 12.3639 34.0638 12.6531 33.5954L16.5907 27.5728H15.5229L19.6273 33.6154C19.9388 34.0705 20.2836 34.3783 20.6618 34.5389C21.04 34.7129 21.5628 34.7999 22.2302 34.7999C22.8086 34.7999 23.2646 34.7062 23.5983 34.5188C23.9543 34.3448 24.1656 34.1106 24.2323 33.8162C24.3213 33.5218 24.2323 33.2006 23.9654 32.8526L18.8265 25.8463C18.5373 25.418 18.1479 25.1035 17.6585 24.9028C17.1913 24.702 16.6129 24.6017 15.9233 24.6017Z" fill="url(#paint2_linear_552_1420)"/>
<path d="M15.9233 24.6017C15.2782 24.6017 14.7109 24.702 14.2214 24.9028C13.732 25.1169 13.3427 25.4314 13.0535 25.8463L8.01469 32.8325C7.76998 33.1805 7.68099 33.5017 7.74773 33.7961C7.81447 34.1039 8.04806 34.3448 8.44849 34.5188C8.87117 34.7062 9.44958 34.7999 10.1837 34.7999C10.7844 34.7999 11.2738 34.7129 11.652 34.5389C12.0302 34.3783 12.3639 34.0638 12.6531 33.5954L16.5907 27.5728H15.5229L19.6273 33.6154C19.9388 34.0705 20.2836 34.3783 20.6618 34.5389C21.04 34.7129 21.5628 34.7999 22.2302 34.7999C22.8086 34.7999 23.2646 34.7062 23.5983 34.5188C23.9543 34.3448 24.1656 34.1106 24.2323 33.8162C24.3213 33.5218 24.2323 33.2006 23.9654 32.8526L18.8265 25.8463C18.5373 25.418 18.1479 25.1035 17.6585 24.9028C17.1913 24.702 16.6129 24.6017 15.9233 24.6017Z" fill="url(#paint3_linear_552_1420)"/>
<path d="M16.0687 21.3984C16.7138 21.3984 17.2811 21.298 17.7705 21.0972C18.26 20.8831 18.6493 20.5686 18.9385 20.1537L23.9773 13.1675C24.222 12.8195 24.311 12.4983 24.2443 12.2039C24.1775 11.8961 23.9439 11.6552 23.5435 11.4812C23.1208 11.2938 22.5424 11.2001 21.8083 11.2001C21.2076 11.2001 20.7182 11.2871 20.34 11.4611C19.9618 11.6217 19.6281 11.9362 19.3389 12.4046L15.4013 18.4272H16.4691L12.3647 12.3846C12.0532 11.9295 11.7084 11.6217 11.3302 11.4611C10.952 11.2871 10.4292 11.2001 9.76183 11.2001C9.18342 11.2001 8.72737 11.2938 8.39367 11.4812C8.03773 11.6552 7.82639 11.8894 7.75965 12.1838C7.67066 12.4783 7.75965 12.7995 8.02661 13.1474L13.1655 20.1537C13.4547 20.582 13.8441 20.8965 14.3335 21.0972C14.8006 21.298 15.3791 21.3984 16.0687 21.3984Z" fill="url(#paint4_linear_552_1420)"/>
<path d="M16.0687 21.3984C16.7138 21.3984 17.2811 21.298 17.7705 21.0972C18.26 20.8831 18.6493 20.5686 18.9385 20.1537L23.9773 13.1675C24.222 12.8195 24.311 12.4983 24.2443 12.2039C24.1775 11.8961 23.9439 11.6552 23.5435 11.4812C23.1208 11.2938 22.5424 11.2001 21.8083 11.2001C21.2076 11.2001 20.7182 11.2871 20.34 11.4611C19.9618 11.6217 19.6281 11.9362 19.3389 12.4046L15.4013 18.4272H16.4691L12.3647 12.3846C12.0532 11.9295 11.7084 11.6217 11.3302 11.4611C10.952 11.2871 10.4292 11.2001 9.76183 11.2001C9.18342 11.2001 8.72737 11.2938 8.39367 11.4812C8.03773 11.6552 7.82639 11.8894 7.75965 12.1838C7.67066 12.4783 7.75965 12.7995 8.02661 13.1474L13.1655 20.1537C13.4547 20.582 13.8441 20.8965 14.3335 21.0972C14.8006 21.298 15.3791 21.3984 16.0687 21.3984Z" fill="url(#paint5_linear_552_1420)"/>
<path d="M14.1982 22.9273C14.1982 22.2822 14.0979 21.7149 13.8971 21.2255C13.683 20.736 13.3685 20.3467 12.9536 20.0575L5.96738 15.0187C5.6194 14.774 5.2982 14.685 5.00376 14.7517C4.69594 14.8185 4.45504 15.0521 4.28105 15.4525C4.09368 15.8752 4 16.4536 4 17.1877C4 17.7884 4.08699 18.2778 4.26098 18.656C4.42158 19.0342 4.73609 19.3679 5.20452 19.6571L11.2271 23.5947V22.5269L5.18444 26.6313C4.7294 26.9428 4.42158 27.2876 4.26098 27.6658C4.08699 28.044 4 28.5668 4 29.2342C4 29.8126 4.09368 30.2686 4.28105 30.6023C4.45504 30.9583 4.68925 31.1696 4.98369 31.2364C5.27812 31.3253 5.59933 31.2364 5.9473 30.9694L12.9536 25.8305C13.3818 25.5413 13.6964 25.152 13.8971 24.6625C14.0979 24.1954 14.1982 23.617 14.1982 22.9273Z" fill="url(#paint6_linear_552_1420)"/>
<path d="M14.1982 22.9273C14.1982 22.2822 14.0979 21.7149 13.8971 21.2255C13.683 20.736 13.3685 20.3467 12.9536 20.0575L5.96738 15.0187C5.6194 14.774 5.2982 14.685 5.00376 14.7517C4.69594 14.8185 4.45504 15.0521 4.28105 15.4525C4.09368 15.8752 4 16.4536 4 17.1877C4 17.7884 4.08699 18.2778 4.26098 18.656C4.42158 19.0342 4.73609 19.3679 5.20452 19.6571L11.2271 23.5947V22.5269L5.18444 26.6313C4.7294 26.9428 4.42158 27.2876 4.26098 27.6658C4.08699 28.044 4 28.5668 4 29.2342C4 29.8126 4.09368 30.2686 4.28105 30.6023C4.45504 30.9583 4.68925 31.1696 4.98369 31.2364C5.27812 31.3253 5.59933 31.2364 5.9473 30.9694L12.9536 25.8305C13.3818 25.5413 13.6964 25.152 13.8971 24.6625C14.0979 24.1954 14.1982 23.617 14.1982 22.9273Z" fill="url(#paint7_linear_552_1420)"/>
<path d="M40.7718 34L34.8151 19.3145H38.9435L41.4796 26.6573L42.1283 29.0753L42.7181 26.6573L45.1657 19.3145H49.0582L43.3964 34H40.7718ZM50.2318 16.9259V13.0039H54.3603V16.9259H50.2318ZM50.3792 34V19.3145H54.2128V34H50.3792ZM64.4167 34.4128C63.3551 34.4128 62.4851 34.0786 61.8069 33.4102C61.1385 32.7418 60.6912 31.9653 60.4652 31.0806V34H57.2214V11.5884H60.76V19.3145L60.4652 21.8506C60.6224 21.1821 60.9321 20.6317 61.3941 20.1992C61.8659 19.7667 62.4016 19.4472 63.0012 19.2408C63.6008 19.0344 64.1808 18.9311 64.7411 18.9311C66.5694 18.9311 67.9504 19.5799 68.8842 20.8774C69.8181 22.1651 70.285 24.0721 70.285 26.5983C70.285 28.3578 70.0196 29.8175 69.4888 30.9774C68.9678 32.1275 68.2601 32.9875 67.3656 33.5577C66.4809 34.1278 65.4979 34.4128 64.4167 34.4128ZM63.5615 31.4934C64.0431 31.4934 64.5002 31.3362 64.9327 31.0216C65.3751 30.6972 65.7338 30.1763 66.0091 29.4587C66.2843 28.7411 66.4219 27.7877 66.4219 26.5983C66.4219 24.9469 66.1418 23.7575 65.5815 23.0301C65.031 22.3027 64.3774 21.939 63.6205 21.939C62.7063 21.939 62.0084 22.4108 61.5268 23.3545C61.0549 24.2883 60.819 25.4482 60.819 26.8342C60.819 28.2202 61.0598 29.3457 61.5415 30.2107C62.033 31.0658 62.7063 31.4934 63.5615 31.4934ZM78.9715 34.3834C77.3202 34.3834 75.9882 34.0393 74.9758 33.3512C73.9633 32.6533 73.2261 31.7343 72.7641 30.594C72.3021 29.444 72.0711 28.1907 72.0711 26.8342C72.0711 25.4089 72.3316 24.1015 72.8526 22.9122C73.3834 21.7129 74.155 20.7545 75.1675 20.037C76.1898 19.3194 77.4381 18.9606 78.9126 18.9606C81.1144 18.9606 82.6527 19.5996 83.5276 20.8774C84.4024 22.1454 84.8398 23.9443 84.8398 26.2739C84.8398 26.4803 84.8349 26.7408 84.8251 27.0554C84.8153 27.3699 84.8005 27.6402 84.7809 27.8663H75.9342C75.9932 29.0262 76.3175 29.9354 76.9073 30.594C77.5069 31.2526 78.4014 31.5819 79.5908 31.5819C80.2002 31.5819 80.8539 31.4492 81.5518 31.1838C82.2497 30.9086 82.7658 30.5793 83.1 30.1959L84.2796 32.9974C83.8864 33.2628 83.2622 33.5626 82.407 33.8968C81.5617 34.2212 80.4165 34.3834 78.9715 34.3834ZM75.9047 25.5662H81.0947C81.0947 24.534 81.0014 23.7477 80.8146 23.207C80.6377 22.6566 80.3919 22.2781 80.0774 22.0717C79.7628 21.8653 79.404 21.7621 79.001 21.7621C77.9984 21.7621 77.2464 22.1356 76.7451 22.8827C76.2438 23.6199 75.9637 24.5144 75.9047 25.5662Z" fill="black"/>
<path d="M96.7525 34L90.7957 19.3145H94.9242L97.4602 26.6573L98.109 29.0753L98.6988 26.6573L101.146 19.3145H105.039L99.377 34H96.7525ZM111.999 34.3834C110.348 34.3834 109.016 34.0393 108.003 33.3512C106.991 32.6533 106.254 31.7343 105.792 30.594C105.33 29.444 105.099 28.1907 105.099 26.8342C105.099 25.4089 105.359 24.1015 105.88 22.9122C106.411 21.7129 107.183 20.7545 108.195 20.037C109.217 19.3194 110.466 18.9606 111.94 18.9606C114.142 18.9606 115.68 19.5996 116.555 20.8774C117.43 22.1454 117.867 23.9443 117.867 26.2739C117.867 26.4803 117.863 26.7408 117.853 27.0554C117.843 27.3699 117.828 27.6402 117.809 27.8663H108.962C109.021 29.0262 109.345 29.9354 109.935 30.594C110.535 31.2526 111.429 31.5819 112.618 31.5819C113.228 31.5819 113.882 31.4492 114.579 31.1838C115.277 30.9086 115.793 30.5793 116.128 30.1959L117.307 32.9974C116.914 33.2628 116.29 33.5626 115.435 33.8968C114.589 34.2212 113.444 34.3834 111.999 34.3834ZM108.932 25.5662H114.122C114.122 24.534 114.029 23.7477 113.842 23.207C113.665 22.6566 113.42 22.2781 113.105 22.0717C112.79 21.8653 112.432 21.7621 112.029 21.7621C111.026 21.7621 110.274 22.1356 109.773 22.8827C109.271 23.6199 108.991 24.5144 108.932 25.5662ZM120.226 34V19.3145H123.647L123.72 21.246C124.104 20.6563 124.639 20.1304 125.328 19.6684C126.016 19.1965 126.92 18.9606 128.04 18.9606C129.535 18.9606 130.645 19.4325 131.373 20.3761C132.1 21.3198 132.464 22.6271 132.464 24.2981V34H128.689V24.6225C128.689 23.8067 128.517 23.1481 128.173 22.6468C127.829 22.1356 127.303 21.88 126.596 21.88C125.907 21.88 125.303 22.1356 124.782 22.6468C124.261 23.1481 124.001 23.8067 124.001 24.6225V34H120.226ZM140.455 34.4423C138.794 34.4423 137.668 34.0098 137.079 33.1448C136.499 32.2798 136.209 30.9725 136.209 29.2228V22.4108H134.292V19.3145H136.356L136.563 16.2182L139.777 14.8322V19.3145H143.404V22.4108H139.777V29.1343C139.777 29.9895 139.895 30.5842 140.131 30.9184C140.376 31.2428 140.711 31.405 141.133 31.405C141.566 31.405 142.023 31.2919 142.505 31.0658C142.986 30.8398 143.365 30.6088 143.64 30.3729L144.348 33.3512C144.043 33.5675 143.645 33.7592 143.153 33.9263C142.672 34.0836 142.18 34.2064 141.679 34.2949C141.187 34.3932 140.779 34.4423 140.455 34.4423ZM150.391 34.3539C148.907 34.3539 147.811 33.882 147.103 32.9384C146.405 31.9849 146.056 30.6776 146.056 29.0164V19.3145H149.742V28.692C149.742 29.498 149.889 30.1566 150.184 30.6677C150.479 31.1789 150.981 31.4345 151.688 31.4345C152.386 31.4345 152.966 31.1789 153.428 30.6677C153.9 30.1566 154.136 29.498 154.136 28.692V19.3145H157.822V34H154.49L154.416 32.098C154.052 32.6779 153.556 33.1989 152.927 33.6609C152.308 34.1229 151.462 34.3539 150.391 34.3539ZM160.642 34V19.3145H163.974L164.151 21.9095C164.308 21.5262 164.549 21.1182 164.874 20.6857C165.208 20.2532 165.665 19.8895 166.245 19.5946C166.835 19.2899 167.591 19.1376 168.515 19.1376C168.801 19.1376 169.051 19.1572 169.267 19.1965C169.484 19.2359 169.685 19.2948 169.872 19.3735L169.046 23.2365C168.732 22.922 168.25 22.7647 167.601 22.7647C166.844 22.7647 166.225 22.922 165.743 23.2365C165.262 23.5413 164.903 23.8853 164.667 24.2686C164.441 24.652 164.328 24.9469 164.328 25.1533V34H160.642ZM176.898 34.3834C175.247 34.3834 173.915 34.0393 172.902 33.3512C171.89 32.6533 171.152 31.7343 170.69 30.594C170.228 29.444 169.998 28.1907 169.998 26.8342C169.998 25.4089 170.258 24.1015 170.779 22.9122C171.31 21.7129 172.081 20.7545 173.094 20.037C174.116 19.3194 175.364 18.9606 176.839 18.9606C179.041 18.9606 180.579 19.5996 181.454 20.8774C182.329 22.1454 182.766 23.9443 182.766 26.2739C182.766 26.4803 182.761 26.7408 182.751 27.0554C182.742 27.3699 182.727 27.6402 182.707 27.8663H173.861C173.92 29.0262 174.244 29.9354 174.834 30.594C175.433 31.2526 176.328 31.5819 177.517 31.5819C178.127 31.5819 178.78 31.4492 179.478 31.1838C180.176 30.9086 180.692 30.5793 181.026 30.1959L182.206 32.9974C181.813 33.2628 181.189 33.5626 180.333 33.8968C179.488 34.2212 178.343 34.3834 176.898 34.3834ZM173.831 25.5662H179.021C179.021 24.534 178.928 23.7477 178.741 23.207C178.564 22.6566 178.318 22.2781 178.004 22.0717C177.689 21.8653 177.33 21.7621 176.927 21.7621C175.925 21.7621 175.173 22.1356 174.671 22.8827C174.17 23.6199 173.89 24.5144 173.831 25.5662Z" fill="#04AD7F"/>
<defs>
<linearGradient id="paint0_linear_552_1420" x1="34.5979" y1="23.1205" x2="-2.65556" y2="22.5311" gradientUnits="userSpaceOnUse">
<stop/>
<stop offset="0.502219" stop-color="#04AD7F"/>
<stop offset="1"/>
</linearGradient>
<linearGradient id="paint1_linear_552_1420" x1="16.118" y1="3.42878" x2="16.118" y2="40.6915" gradientUnits="userSpaceOnUse">
<stop/>
<stop offset="0.5" stop-color="#04AD7F"/>
<stop offset="1"/>
</linearGradient>
<linearGradient id="paint2_linear_552_1420" x1="34.5979" y1="23.1205" x2="-2.65556" y2="22.5311" gradientUnits="userSpaceOnUse">
<stop/>
<stop offset="0.502219" stop-color="#04AD7F"/>
<stop offset="1"/>
</linearGradient>
<linearGradient id="paint3_linear_552_1420" x1="16.118" y1="3.42878" x2="16.118" y2="40.6915" gradientUnits="userSpaceOnUse">
<stop/>
<stop offset="0.5" stop-color="#04AD7F"/>
<stop offset="1"/>
</linearGradient>
<linearGradient id="paint4_linear_552_1420" x1="34.5979" y1="23.1205" x2="-2.65556" y2="22.5311" gradientUnits="userSpaceOnUse">
<stop/>
<stop offset="0.502219" stop-color="#04AD7F"/>
<stop offset="1"/>
</linearGradient>
<linearGradient id="paint5_linear_552_1420" x1="16.118" y1="3.42878" x2="16.118" y2="40.6915" gradientUnits="userSpaceOnUse">
<stop/>
<stop offset="0.5" stop-color="#04AD7F"/>
<stop offset="1"/>
</linearGradient>
<linearGradient id="paint6_linear_552_1420" x1="34.5979" y1="23.1205" x2="-2.65556" y2="22.5311" gradientUnits="userSpaceOnUse">
<stop/>
<stop offset="0.502219" stop-color="#04AD7F"/>
<stop offset="1"/>
</linearGradient>
<linearGradient id="paint7_linear_552_1420" x1="16.118" y1="3.42878" x2="16.118" y2="40.6915" gradientUnits="userSpaceOnUse">
<stop/>
<stop offset="0.5" stop-color="#04AD7F"/>
<stop offset="1"/>
</linearGradient>
</defs>
</svg>
